<svg width="41" height="41" viewBox="0 0 41 41" fill="none" xmlns="http://www.w3.org/2000/svg">
<path d="M27.3332 38.8646H5.12484C3.48484 38.8646 2.13525 37.515 2.13525 35.875V13.6667C2.13525 6.11582 6.11567 2.13541 13.6665 2.13541H27.3332C34.884 2.13541 38.8644 6.11582 38.8644 13.6667V27.3333C38.8644 34.8842 34.884 38.8646 27.3332 38.8646ZM13.6665 4.69791C7.55067 4.69791 4.69775 7.55082 4.69775 13.6667V35.875C4.69775 36.1142 4.88567 36.3021 5.12484 36.3021H27.3332C33.449 36.3021 36.3019 33.4492 36.3019 27.3333V13.6667C36.3019 7.55082 33.449 4.69791 27.3332 4.69791H13.6665Z" fill="#292D32"/>
<path d="M13.5808 30.3229C12.7779 30.3229 12.0433 30.0325 11.4966 29.5029C10.8475 28.8537 10.557 27.9312 10.7108 26.9404L11.1891 23.5579C11.2916 22.8233 11.7529 21.8837 12.2825 21.3542L21.1487 12.4879C24.1896 9.44708 26.8375 10.8137 28.5116 12.4879C29.827 13.8033 30.425 15.1871 30.2883 16.5708C30.1858 17.6983 29.5879 18.7575 28.5116 19.8508L19.6454 28.7171C19.1158 29.2467 18.1933 29.7079 17.4416 29.8275L14.0591 30.3058C13.9054 30.3058 13.7346 30.3229 13.5808 30.3229ZM24.8216 13.2396C24.1895 13.2396 23.6258 13.6496 22.9767 14.2817L14.1104 23.1479C13.9737 23.2846 13.7687 23.7117 13.7346 23.8996L13.2562 27.2821C13.2391 27.4529 13.2562 27.6067 13.3245 27.675C13.3929 27.7433 13.5466 27.7604 13.7175 27.7433L17.1 27.265C17.305 27.2308 17.715 27.0258 17.8517 26.8892L26.7179 18.0229C27.3671 17.3737 27.7087 16.81 27.76 16.2975C27.8112 15.7167 27.4696 15.0333 26.7179 14.2817C25.9662 13.5642 25.3683 13.2396 24.8216 13.2396Z" fill="#292D32"/>
<path d="M26.3422 21.4908C26.2226 21.4908 26.103 21.4737 26.0005 21.4395C22.9084 20.5683 20.4313 18.1083 19.5601 14.9991C19.3722 14.3158 19.7651 13.6154 20.4484 13.4104C21.1317 13.2225 21.8322 13.6154 22.0201 14.2987C22.6522 16.5366 24.4459 18.3304 26.6838 18.9625C27.3671 19.1504 27.7601 19.8679 27.5722 20.5512C27.4184 21.115 26.9059 21.4908 26.3422 21.4908Z" fill="#292D32"/>
</svg>
